<svg width="64" height="64" viewBox="0 0 64 64" fill="none" xmlns="http://www.w3.org/2000/svg">
<g filter="url(#filter0_bd_1_1136)">
<rect x="10" y="6" width="44" height="44" rx="22" fill="#2B2C2F" fill-opacity="0.7" shape-rendering="crispEdges"/>
<path d="M32 23.625C30.9662 23.625 30.125 22.7838 30.125 21.75C30.125 20.7162 30.9662 19.875 32 19.875C33.0338 19.875 33.875 20.7162 33.875 21.75C33.875 22.7838 33.0338 23.625 32 23.625Z" fill="white"/>
<path d="M30.125 28C30.125 29.0337 30.9662 29.875 32 29.875C33.0338 29.875 33.875 29.0337 33.875 28C33.875 26.9662 33.0338 26.125 32 26.125C30.9662 26.125 30.125 26.9662 30.125 28Z" fill="white"/>
<path d="M30.125 34.25C30.125 35.2837 30.9662 36.125 32 36.125C33.0338 36.125 33.875 35.2837 33.875 34.25C33.875 33.2163 33.0338 32.375 32 32.375C30.9662 32.375 30.125 33.2163 30.125 34.25Z" fill="white"/>
</g>
<defs>
<filter id="filter0_bd_1_1136" x="0" y="-4" width="64" height="68" filterUnits="userSpaceOnUse" color-interpolation-filters="sRGB">
<feFlood flood-opacity="0" result="BackgroundImageFix"/>
<feGaussianBlur in="BackgroundImageFix" stdDeviation="5"/>
<feComposite in2="SourceAlpha" operator="in" result="effect1_backgroundBlur_1_1136"/>
<feColorMatrix in="SourceAlpha" type="matrix" values="0 0 0 0 0 0 0 0 0 0 0 0 0 0 0 0 0 0 127 0" result="hardAlpha"/>
<feOffset dy="4"/>
<feGaussianBlur stdDeviation="5"/>
<feComposite in2="hardAlpha" operator="out"/>
<feColorMatrix type="matrix" values="0 0 0 0 0 0 0 0 0 0 0 0 0 0 0 0 0 0 0.25 0"/>
<feBlend mode="normal" in2="effect1_backgroundBlur_1_1136" result="effect2_dropShadow_1_1136"/>
<feBlend mode="normal" in="SourceGraphic" in2="effect2_dropShadow_1_1136" result="shape"/>
</filter>
</defs>
</svg>
